<svg width="60" height="61" viewBox="0 0 60 61" fill="none" xmlns="http://www.w3.org/2000/svg">
<path fill-rule="evenodd" clip-rule="evenodd" d="M58.9156 55.602H34.9792C34.6937 55.602 34.4199 55.4886 34.218 55.2867C34.0161 55.0848 33.9027 54.811 33.9027 54.5255C33.9027 54.24 34.0161 53.9662 34.218 53.7644C34.4199 53.5625 34.6937 53.4491 34.9792 53.4491H57.8313V46.6601C57.8313 46.3725 57.9455 46.0967 58.1489 45.8933C58.3522 45.69 58.628 45.5757 58.9156 45.5757C59.2032 45.5757 59.479 45.69 59.6824 45.8933C59.8858 46.0967 60 46.3725 60 46.6601V54.5255C59.9989 54.8121 59.8841 55.0864 59.6807 55.2883C59.4774 55.4902 59.2022 55.603 58.9156 55.602ZM56.7065 44.9187C55.8365 44.9209 55.0011 44.5779 54.3836 43.9649C53.7661 43.3519 53.417 42.519 53.4128 41.649C53.4128 41.6217 53.4128 41.5963 53.4158 41.5699L54.3581 28.8663H53.145C52.8873 28.8675 52.632 28.8167 52.3943 28.717C52.1567 28.6172 51.9416 28.4706 51.762 28.2858C51.5824 28.1009 51.4419 27.8818 51.349 27.6414C51.2561 27.401 51.2126 27.1444 51.2212 26.8868C51.4235 21.2176 53.4161 13.0914 55.146 8.81398C55.4067 8.16925 55.9571 6.99843 56.7161 6.38807C56.9962 6.14836 57.3386 5.99294 57.7035 5.93985C58.0683 5.88675 58.4408 5.93814 58.7776 6.08807C59.2342 6.30407 59.9997 6.90625 59.9997 8.51152V41.649C59.9956 42.5189 59.6466 43.3517 59.0293 43.9647C58.412 44.5776 57.5768 44.9207 56.7068 44.9187H56.7065ZM57.831 8.50962C57.831 8.45125 57.8294 8.39889 57.8261 8.35034C57.5546 8.74425 57.3306 9.16882 57.1587 9.61525C55.5158 13.677 53.6367 21.4497 53.4 26.7133H55.5273C55.6762 26.7133 55.8236 26.7438 55.9603 26.803C56.097 26.8622 56.2201 26.9488 56.322 27.0575C56.4233 27.1656 56.5011 27.2935 56.5505 27.4331C56.5999 27.5728 56.6198 27.7212 56.6089 27.8689L55.5818 41.682C55.5928 41.9757 55.7183 42.2535 55.9315 42.4559C56.1447 42.6583 56.4286 42.7692 56.7225 42.7649C57.0165 42.7606 57.297 42.6414 57.5042 42.4328C57.7114 42.2243 57.8287 41.9429 57.831 41.649V8.51071V8.50962ZM46.0685 22.146L46.6516 41.5584C46.6492 42.4425 46.2974 43.2897 45.6729 43.9154C45.0485 44.5412 44.202 44.8947 43.318 44.899C42.4339 44.9033 41.5841 44.558 40.9536 43.9383C40.3231 43.3186 39.9631 42.4749 39.9521 41.5909L40.5357 22.1454C38.301 21.2119 36.8356 19.2 36.8356 16.9893V6.9908C36.8356 6.70321 36.9499 6.42739 37.1532 6.22404C37.3566 6.02068 37.6324 5.90643 37.92 5.90643C38.2076 5.90643 38.4834 6.02068 38.6868 6.22404C38.8901 6.42739 39.0044 6.70321 39.0044 6.9908V16.992C39.0044 18.441 40.1062 19.7705 41.7455 20.2996C42.0337 20.392 42.2842 20.5752 42.4598 20.8217C42.6353 21.0682 42.7264 21.3648 42.7195 21.6673L42.1195 41.6253C42.1306 41.9339 42.2621 42.2258 42.4858 42.4387C42.7096 42.6516 43.0077 42.7684 43.3165 42.7642C43.6253 42.76 43.9201 42.6351 44.138 42.4162C44.3558 42.1973 44.4793 41.9019 44.4821 41.5931L43.8821 21.6654C43.873 21.3628 43.9632 21.0656 44.1389 20.8191C44.3146 20.5725 44.5662 20.3903 44.8552 20.3002C46.4959 19.7705 47.5975 18.441 47.5975 16.992V6.9908C47.5975 6.70321 47.7117 6.42739 47.9151 6.22404C48.1184 6.02068 48.3942 5.90643 48.6818 5.90643C48.9694 5.90643 49.2452 6.02068 49.4486 6.22404C49.6519 6.42739 49.7662 6.70321 49.7662 6.9908V16.992C49.7686 19.2035 48.3038 21.2146 46.0688 22.1482L46.0685 22.146ZM45.0818 16.7861C44.9399 16.7866 44.7993 16.7592 44.668 16.7054C44.5368 16.6516 44.4174 16.5724 44.3167 16.4725C44.216 16.3725 44.1359 16.2537 44.0812 16.1228C44.0264 15.9919 43.998 15.8515 43.9975 15.7096V6.9908C43.9975 6.70321 44.1117 6.42739 44.3151 6.22404C44.5184 6.02068 44.7942 5.90643 45.0818 5.90643C45.3694 5.90643 45.6452 6.02068 45.8486 6.22404C46.0519 6.42739 46.1662 6.70321 46.1662 6.9908V15.7102C46.165 15.9966 46.05 16.2708 45.8467 16.4726C45.6434 16.6743 45.3683 16.7871 45.0818 16.7861ZM41.5233 16.7861C41.2367 16.7871 40.9615 16.6743 40.7582 16.4724C40.5548 16.2705 40.44 15.9961 40.4389 15.7096V6.9908C40.4389 6.70321 40.5532 6.42739 40.7565 6.22404C40.9599 6.02068 41.2357 5.90643 41.5233 5.90643C41.8109 5.90643 42.0867 6.02068 42.29 6.22404C42.4934 6.42739 42.6076 6.70321 42.6076 6.9908V15.7102C42.6071 15.852 42.5785 15.9924 42.5237 16.1233C42.4689 16.2542 42.3888 16.3729 42.2881 16.4729C42.1873 16.5728 42.0679 16.6518 41.9365 16.7056C41.8052 16.7593 41.6646 16.7867 41.5227 16.7861H41.5233ZM34.662 19.767H33.8913C33.1498 19.7651 32.4379 20.0574 31.9117 20.5797C31.3855 21.102 31.088 21.8117 31.0844 22.5532V50.5677C31.9119 50.0043 32.8902 49.7036 33.8913 49.7051H54.0597V47.1283C54.0597 46.8408 54.174 46.5649 54.3773 46.3616C54.5807 46.1582 54.8565 46.044 55.1441 46.044C55.4317 46.044 55.7075 46.1582 55.9109 46.3616C56.1142 46.5649 56.2285 46.8408 56.2285 47.1283V50.7813C56.2277 51.0677 56.1131 51.3422 55.91 51.5442C55.707 51.7463 55.4319 51.8595 55.1455 51.8588H33.8913C33.1498 51.8569 32.4379 52.1492 31.9117 52.6715C31.3855 53.1938 31.088 53.9036 31.0844 54.645C31.0844 54.9326 30.9701 55.2084 30.7668 55.4117C30.5634 55.6151 30.2876 55.7293 30 55.7293C29.7124 55.7293 29.4366 55.6151 29.2332 55.4117C29.0299 55.2084 28.9156 54.9326 28.9156 54.645C28.912 53.9036 28.6145 53.1938 28.0883 52.6715C27.5621 52.1492 26.8502 51.8569 26.1087 51.8588H4.85591C4.56938 51.8598 4.29417 51.747 4.09082 51.5451C3.88747 51.3432 3.77263 51.0689 3.77155 50.7823V18.6905C3.77208 18.5487 3.80055 18.4083 3.85534 18.2774C3.91012 18.1466 3.99015 18.0278 4.09084 17.9279C4.19153 17.8279 4.31092 17.7488 4.44219 17.695C4.57346 17.6412 4.71405 17.6138 4.85591 17.6143H26.1087C26.8561 17.6139 27.5939 17.7818 28.2675 18.1054C28.9412 18.4291 29.5333 18.9002 30 19.4839C30.4667 18.9002 31.0588 18.4291 31.7325 18.1054C32.4061 17.7818 33.1439 17.6139 33.8913 17.6143H34.662C34.8048 17.6121 34.9466 17.6382 35.0792 17.6913C35.2118 17.7444 35.3324 17.8233 35.4342 17.9235C35.536 18.0236 35.6168 18.1431 35.672 18.2748C35.7272 18.4065 35.7556 18.5479 35.7556 18.6907C35.7556 18.8335 35.7272 18.9748 35.672 19.1066C35.6168 19.2383 35.536 19.3577 35.4342 19.4579C35.3324 19.558 35.2118 19.637 35.0792 19.69C34.9466 19.7431 34.8048 19.7693 34.662 19.767ZM28.9156 22.5532C28.912 21.8117 28.6145 21.102 28.0883 20.5797C27.5621 20.0574 26.8502 19.7651 26.1087 19.767H5.94027V49.7043H26.1087C27.1098 49.7028 28.0881 50.0035 28.9156 50.5669V22.5532ZM24.6297 35.4373H10.1727C10.0299 35.4396 9.88813 35.4135 9.75555 35.3604C9.62298 35.3073 9.50229 35.2284 9.40051 35.1282C9.29873 35.0281 9.2179 34.9086 9.16273 34.7769C9.10755 34.6452 9.07914 34.5038 9.07914 34.361C9.07914 34.2182 9.10755 34.0768 9.16273 33.9451C9.2179 33.8134 9.29873 33.694 9.40051 33.5938C9.50229 33.4937 9.62298 33.4147 9.75555 33.3617C9.88813 33.3086 10.0299 33.2824 10.1727 33.2847H24.6305C24.7733 33.2825 24.9151 33.3087 25.0477 33.3618C25.1802 33.4149 25.3009 33.4939 25.4026 33.5941C25.5044 33.6943 25.5852 33.8138 25.6403 33.9455C25.6954 34.0772 25.7238 34.2186 25.7237 34.3614C25.7237 34.5042 25.6952 34.6456 25.64 34.7773C25.5848 34.909 25.5039 35.0284 25.4021 35.1285C25.3002 35.2286 25.1795 35.3075 25.0469 35.3605C24.9143 35.4136 24.7725 35.4397 24.6297 35.4373ZM24.6297 30.6534H10.1727C9.88723 30.6534 9.61343 30.54 9.41156 30.3381C9.20968 30.1363 9.09627 29.8625 9.09627 29.577C9.09627 29.2915 9.20968 29.0177 9.41156 28.8158C9.61343 28.6139 9.88723 28.5005 10.1727 28.5005H24.6305C24.7719 28.5006 24.9119 28.5285 25.0425 28.5826C25.173 28.6368 25.2917 28.7161 25.3916 28.8161C25.4915 28.9161 25.5708 29.0348 25.6248 29.1654C25.6789 29.296 25.7066 29.436 25.7066 29.5774C25.7065 29.7188 25.6786 29.8587 25.6245 29.9893C25.5703 30.1199 25.491 30.2385 25.391 30.3384C25.291 30.4384 25.1723 30.5176 25.0417 30.5716C24.9111 30.6257 24.7711 30.6535 24.6297 30.6534ZM24.6297 25.8693H10.1727C10.0299 25.8715 9.88813 25.8454 9.75555 25.7923C9.62298 25.7392 9.50229 25.6603 9.40051 25.5601C9.29873 25.46 9.2179 25.3405 9.16273 25.2088C9.10755 25.0771 9.07914 24.9357 9.07914 24.7929C9.07914 24.6501 9.10755 24.5088 9.16273 24.377C9.2179 24.2453 9.29873 24.1259 9.40051 24.0257C9.50229 23.9256 9.62298 23.8466 9.75555 23.7936C9.88813 23.7405 10.0299 23.7143 10.1727 23.7166H24.6305C24.7733 23.7144 24.9151 23.7406 25.0477 23.7937C25.1802 23.8469 25.3009 23.9258 25.4026 24.026C25.5044 24.1262 25.5852 24.2457 25.6403 24.3774C25.6954 24.5092 25.7238 24.6505 25.7237 24.7933C25.7237 24.9362 25.6952 25.0775 25.64 25.2092C25.5848 25.3409 25.5039 25.4603 25.4021 25.5604C25.3002 25.6606 25.1795 25.7394 25.0469 25.7925C24.9143 25.8455 24.7725 25.8716 24.6297 25.8693ZM10.1727 38.0681H19.5704C19.8559 38.0681 20.1297 38.1815 20.3315 38.3834C20.5334 38.5852 20.6468 38.859 20.6468 39.1445C20.6468 39.43 20.5334 39.7038 20.3315 39.9057C20.1297 40.1076 19.8559 40.221 19.5704 40.221H10.1727C9.88723 40.221 9.61343 40.1076 9.41156 39.9057C9.20968 39.7038 9.09627 39.43 9.09627 39.1445C9.09627 38.859 9.20968 38.5852 9.41156 38.3834C9.61343 38.1815 9.88723 38.0681 10.1727 38.0681ZM25.2095 12.1063L25.9364 12.8315C26.037 12.9311 26.1169 13.0497 26.1714 13.1804C26.2259 13.3111 26.254 13.4513 26.254 13.5928C26.254 13.7344 26.2259 13.8746 26.1714 14.0053C26.1169 14.136 26.037 14.2545 25.9364 14.3542C25.7322 14.5559 25.4567 14.669 25.1697 14.669C24.8827 14.669 24.6073 14.5559 24.4031 14.3542L23.6744 13.6301C23.5738 13.5304 23.4939 13.4119 23.4394 13.2812C23.3849 13.1505 23.3569 13.0103 23.3569 12.8688C23.3569 12.7272 23.3849 12.587 23.4394 12.4563C23.4939 12.3256 23.5738 12.2071 23.6744 12.1074C23.8785 11.9053 24.1541 11.7918 24.4413 11.7916C24.7286 11.7913 25.0044 11.9045 25.2087 12.1063H25.2095ZM25.2095 10.4495C25.0054 10.6512 24.7299 10.7643 24.4429 10.7643C24.1559 10.7643 23.8805 10.6512 23.6763 10.4495C23.5756 10.35 23.4957 10.2315 23.4412 10.1008C23.3867 9.97019 23.3586 9.83004 23.3586 9.68848C23.3586 9.54692 23.3867 9.40677 23.4412 9.27614C23.4957 9.1455 23.5756 9.02698 23.6763 8.92743L24.4047 8.20443C24.6087 8.00235 24.8842 7.88897 25.1714 7.88897C25.4585 7.88897 25.734 8.00235 25.938 8.20443C26.0386 8.30398 26.1185 8.4225 26.1731 8.55314C26.2276 8.68377 26.2557 8.82392 26.2557 8.96548C26.2557 9.10704 26.2276 9.24719 26.1731 9.37782C26.1185 9.50846 26.0386 9.62698 25.938 9.72652L25.2095 10.4495ZM22.0061 12.1055C22.1067 12.2051 22.1866 12.3237 22.2411 12.4544C22.2956 12.5851 22.3237 12.7253 22.3237 12.8668C22.3237 13.0084 22.2956 13.1486 22.2411 13.2793C22.1866 13.41 22.1067 13.5285 22.0061 13.6282L21.2776 14.3523C21.0735 14.5539 20.798 14.667 20.511 14.667C20.224 14.667 19.9486 14.5539 19.7444 14.3523C19.6437 14.2526 19.5639 14.1341 19.5093 14.0034C19.4548 13.8727 19.4268 13.7325 19.4268 13.5909C19.4268 13.4493 19.4548 13.3092 19.5093 13.1785C19.5639 13.0478 19.6437 12.9292 19.7444 12.8296L20.4728 12.1058C20.6769 11.9044 20.9521 11.7915 21.2389 11.7914C21.5256 11.7914 21.8008 11.9042 22.005 12.1055H22.0061ZM21.24 10.7648C20.9528 10.7654 20.6771 10.652 20.4734 10.4495L19.7446 9.72652C19.644 9.62698 19.5641 9.50846 19.5096 9.37782C19.455 9.24719 19.427 9.10704 19.427 8.96548C19.427 8.82392 19.455 8.68377 19.5096 8.55314C19.5641 8.4225 19.644 8.30398 19.7446 8.20443C19.9486 8.00235 20.2241 7.88897 20.5113 7.88897C20.7984 7.88897 21.0739 8.00235 21.2779 8.20443L22.0066 8.92743C22.1073 9.02698 22.1872 9.1455 22.2417 9.27614C22.2962 9.40677 22.3243 9.54692 22.3243 9.68848C22.3243 9.83004 22.2962 9.97019 22.2417 10.1008C22.1872 10.2315 22.1073 10.35 22.0066 10.4495C21.8026 10.6522 21.5265 10.7656 21.2389 10.7648H21.24ZM10.7981 8.80634L11.0247 9.03189C11.1252 9.13162 11.2049 9.25027 11.2591 9.38099C11.3134 9.51171 11.3413 9.6519 11.3411 9.79345C11.3408 9.93499 11.3125 10.0751 11.2578 10.2056C11.2031 10.3362 11.123 10.4546 11.0223 10.554C10.8177 10.7554 10.542 10.8681 10.2549 10.8675C9.96787 10.867 9.69257 10.7534 9.48873 10.5513L9.26209 10.3254C9.16172 10.2257 9.0821 10.107 9.02785 9.97636C8.9736 9.84566 8.94579 9.70552 8.94601 9.56401C8.94624 9.42251 8.97451 9.28245 9.02918 9.15194C9.08386 9.02142 9.16385 8.90303 9.26455 8.80362C9.46885 8.60214 9.7444 8.48941 10.0313 8.48992C10.3183 8.49043 10.5934 8.60414 10.797 8.80634H10.7981ZM10.7981 7.33362C10.5939 7.53531 10.3185 7.64841 10.0315 7.64841C9.74445 7.64841 9.46901 7.53531 9.26482 7.33362C9.16418 7.23407 9.08428 7.11555 9.02975 6.98491C8.97522 6.85428 8.94715 6.71413 8.94715 6.57257C8.94715 6.43101 8.97522 6.29086 9.02975 6.16023C9.08428 6.02959 9.16418 5.91107 9.26482 5.81152L9.49145 5.58652C9.69564 5.38483 9.97109 5.27173 10.2581 5.27173C10.5451 5.27173 10.8205 5.38483 11.0247 5.58652C11.1254 5.68607 11.2053 5.80459 11.2598 5.93523C11.3143 6.06586 11.3424 6.20601 11.3424 6.34757C11.3424 6.48913 11.3143 6.62928 11.2598 6.75991C11.2053 6.89055 11.1254 7.00907 11.0247 7.10862L10.7981 7.33362ZM7.55727 10.5518C7.35306 10.7537 7.0775 10.8669 6.79036 10.8669C6.50323 10.8669 6.22766 10.7537 6.02345 10.5518C5.92285 10.4522 5.84298 10.3337 5.78847 10.2031C5.73396 10.0724 5.7059 9.9323 5.7059 9.79075C5.7059 9.64921 5.73396 9.50906 5.78847 9.37843C5.84298 9.2478 5.92285 9.12927 6.02345 9.02971L6.25036 8.80389C6.45437 8.60164 6.73 8.48816 7.01727 8.48816C7.30454 8.48816 7.58018 8.60164 7.78418 8.80389C7.88479 8.90346 7.96466 9.02198 8.01917 9.15261C8.07367 9.28324 8.10174 9.42339 8.10174 9.56493C8.10174 9.70648 8.07367 9.84662 8.01917 9.97725C7.96466 10.1079 7.88479 10.2264 7.78418 10.326L7.55727 10.5518ZM7.01427 7.64971C6.72733 7.65011 6.45187 7.53708 6.24791 7.33525L6.021 7.11025C5.92039 7.01068 5.84052 6.89216 5.78602 6.76153C5.73151 6.6309 5.70344 6.49075 5.70344 6.34921C5.70344 6.20766 5.73151 6.06752 5.78602 5.93689C5.84052 5.80626 5.92039 5.68773 6.021 5.58816C6.22521 5.3863 6.50077 5.2731 6.78791 5.2731C7.07505 5.2731 7.35061 5.3863 7.55482 5.58816L7.78173 5.81316C7.88234 5.91273 7.9622 6.03126 8.01671 6.16189C8.07122 6.29252 8.09928 6.43266 8.09928 6.57421C8.09928 6.71575 8.07122 6.8559 8.01671 6.98653C7.9622 7.11716 7.88234 7.23568 7.78173 7.33525C7.5777 7.53765 7.30166 7.65076 7.01427 7.64971ZM26.1052 54.5253C26.1047 54.6671 26.0762 54.8075 26.0215 54.9384C25.9667 55.0693 25.8867 55.1881 25.786 55.2881C25.6853 55.3881 25.5659 55.4672 25.4346 55.521C25.3033 55.5748 25.1627 55.6022 25.0208 55.6017H1.08436C0.797879 55.6027 0.522717 55.4899 0.319375 55.2881C0.116032 55.0863 0.00115514 54.812 0 54.5255L0 22.4348C4.28544e-09 22.1472 0.114245 21.8714 0.317603 21.668C0.52096 21.4647 0.796773 21.3504 1.08436 21.3504C1.37195 21.3504 1.64777 21.4647 1.85112 21.668C2.05448 21.8714 2.16873 22.1472 2.16873 22.4348V53.4491H25.0208C25.1627 53.4485 25.3033 53.476 25.4346 53.5298C25.5659 53.5836 25.6853 53.6627 25.786 53.7627C25.8867 53.8626 25.9667 53.9815 26.0215 54.1124C26.0762 54.2432 26.1047 54.3836 26.1052 54.5255V54.5253Z" fill="#C93A17"/>
</svg>
