<svg width="61" height="61" viewBox="0 0 61 61" fill="none" xmlns="http://www.w3.org/2000/svg">
<path fill-rule="evenodd" clip-rule="evenodd" d="M55.0933 25.839H50.8646C50.5757 25.839 50.2986 25.7242 50.0943 25.5199C49.89 25.3156 49.7752 25.0385 49.7752 24.7496C49.7752 24.4607 49.89 24.1836 50.0943 23.9793C50.2986 23.775 50.5757 23.6602 50.8646 23.6602H55.0923C55.7438 23.6527 56.366 23.3886 56.824 22.9253C57.2821 22.4619 57.5389 21.8367 57.5389 21.1852C57.5389 20.5337 57.2821 19.9084 56.824 19.4451C56.366 18.9818 55.7438 18.7177 55.0923 18.7102H5.22244C4.57097 18.7177 3.94875 18.9818 3.49073 19.4451C3.03271 19.9084 2.77584 20.5337 2.77584 21.1852C2.77584 21.8367 3.03271 22.4619 3.49073 22.9253C3.94875 23.3886 4.57097 23.6527 5.22244 23.6602H9.45013C9.73906 23.6602 10.0161 23.775 10.2204 23.9793C10.4248 24.1836 10.5395 24.4607 10.5395 24.7496C10.5395 25.0385 10.4248 25.3156 10.2204 25.5199C10.0161 25.7242 9.73906 25.839 9.45013 25.839H5.22244C3.98813 25.839 2.80438 25.3487 1.93159 24.4759C1.05881 23.6031 0.568481 22.4193 0.568481 21.185C0.568481 19.9507 1.05881 18.767 1.93159 17.8942C2.80438 17.0214 3.98813 16.5311 5.22244 16.5311H55.0933C56.3276 16.5311 57.5114 17.0214 58.3842 17.8942C59.2569 18.767 59.7473 19.9507 59.7473 21.185C59.7473 22.4193 59.2569 23.6031 58.3842 24.4759C57.5114 25.3487 56.3276 25.839 55.0933 25.839ZM53.3856 14.945C49.4626 11.4406 40.3284 9.1758 30.1149 9.1758C20.0203 9.1758 10.6554 11.5056 6.81145 14.974C6.70569 15.0696 6.58208 15.1433 6.44771 15.1909C6.31335 15.2385 6.1709 15.2591 6.02857 15.2514C5.88623 15.2437 5.74683 15.2079 5.61838 15.1461C5.48993 15.0843 5.37497 14.9977 5.28013 14.8913C5.088 14.6759 4.98887 14.3932 5.00437 14.1049C5.01987 13.8167 5.14875 13.5463 5.36288 13.3527C9.14815 9.93733 17.1872 7.59272 26.4367 7.09623C26.0353 6.44219 25.8156 5.69296 25.8002 4.92573C25.7847 4.1585 25.9742 3.40103 26.3489 2.73137C26.7236 2.06171 27.2702 1.50408 27.9321 1.11594C28.5941 0.727805 29.3476 0.523193 30.115 0.523193C30.8824 0.523193 31.6359 0.727805 32.2979 1.11594C32.9599 1.50408 33.5064 2.06171 33.8811 2.73137C34.2559 3.40103 34.4453 4.1585 34.4299 4.92573C34.4144 5.69296 34.1947 6.44219 33.7933 7.09623C43.005 7.59074 51.0278 9.92217 54.8263 13.3161C55.0414 13.5087 55.1716 13.7787 55.1884 14.0669C55.2052 14.3552 55.1072 14.6384 54.916 14.8547C54.8216 14.9614 54.7071 15.0485 54.579 15.1108C54.4509 15.1731 54.3117 15.2095 54.1695 15.2179C54.0273 15.2262 53.8848 15.2064 53.7503 15.1595C53.6158 15.1126 53.4918 15.04 53.3856 14.945ZM30.1149 2.68129C29.6878 2.67933 29.2697 2.80418 28.9136 3.04003C28.5576 3.27588 28.2795 3.6121 28.1147 4.00611C27.9499 4.40012 27.9057 4.83419 27.9878 5.25332C28.0699 5.67244 28.2746 6.05777 28.5759 6.36049C28.8771 6.66321 29.2615 6.86968 29.6802 6.95377C30.099 7.03785 30.5332 6.99576 30.928 6.83282C31.3228 6.66988 31.6604 6.39342 31.8979 6.03848C32.1354 5.68354 32.2623 5.26607 32.2623 4.83898C32.2632 4.2682 32.0376 3.72038 31.635 3.31579C31.2323 2.9112 30.6856 2.68321 30.1149 2.68129ZM14.3128 25.838C14.0238 25.838 13.7467 25.7232 13.5424 25.5189C13.3381 25.3146 13.2234 25.0375 13.2234 24.7486C13.2234 24.4597 13.3381 24.1826 13.5424 23.9783C13.7467 23.774 14.0238 23.6592 14.3128 23.6592H14.6935C14.9825 23.6592 15.2596 23.774 15.4639 23.9783C15.6682 24.1826 15.7829 24.4597 15.7829 24.7486C15.7829 25.0375 15.6682 25.3146 15.4639 25.5189C15.2596 25.7232 14.9825 25.838 14.6935 25.838H14.3128ZM19.2631 25.838C18.9742 25.838 18.6971 25.7232 18.4928 25.5189C18.2885 25.3146 18.1737 25.0375 18.1737 24.7486C18.1737 24.4597 18.2885 24.1826 18.4928 23.9783C18.6971 23.774 18.9742 23.6592 19.2631 23.6592H19.6449C19.9338 23.6592 20.2109 23.774 20.4152 23.9783C20.6195 24.1826 20.7343 24.4597 20.7343 24.7486C20.7343 25.0375 20.6195 25.3146 20.4152 25.5189C20.2109 25.7232 19.9338 25.838 19.6449 25.838H19.2644H19.2631ZM24.2131 25.838C23.9242 25.838 23.6471 25.7232 23.4428 25.5189C23.2385 25.3146 23.1237 25.0375 23.1237 24.7486C23.1237 24.4597 23.2385 24.1826 23.4428 23.9783C23.6471 23.774 23.9242 23.6592 24.2131 23.6592H24.5942C24.8831 23.6592 25.1602 23.774 25.3645 23.9783C25.5688 24.1826 25.6836 24.4597 25.6836 24.7486C25.6836 25.0375 25.5688 25.3146 25.3645 25.5189C25.1602 25.7232 24.8831 25.838 24.5942 25.838H24.2131ZM6.08716 27.2885C6.37535 27.2895 6.65139 27.4048 6.85467 27.609C7.05796 27.8133 7.17189 28.0899 7.17145 28.3781V45.0634C7.16961 46.4401 7.71397 47.7614 8.6851 48.7373C9.65623 49.7132 10.9748 50.264 12.3516 50.2689H28.6323C28.9213 50.2689 29.1984 50.3837 29.4028 50.588C29.6071 50.7923 29.7219 51.0695 29.7219 51.3584C29.7219 51.6474 29.6071 51.9245 29.4028 52.1289C29.1984 52.3332 28.9213 52.448 28.6323 52.448H12.3516C10.3985 52.441 8.52794 51.6596 7.15027 50.2752C5.77261 48.8908 5.00033 47.0165 5.00288 45.0634V28.3804C5.00244 28.0922 5.11637 27.8156 5.31965 27.6114C5.52294 27.4071 5.79897 27.2918 6.08716 27.2908V27.2885ZM33.1722 34.5129C33.0718 34.6141 32.9524 34.6944 32.8208 34.7491C32.6892 34.8039 32.5481 34.8321 32.4056 34.8321C32.263 34.8321 32.1219 34.8039 31.9904 34.7491C31.8588 34.6944 31.7393 34.6141 31.6389 34.5129C31.4354 34.3082 31.3212 34.0312 31.3212 33.7425C31.3212 33.4538 31.4354 33.1768 31.6389 32.9721L33.1976 31.4061C33.298 31.305 33.4175 31.2247 33.549 31.1699C33.6806 31.1152 33.8217 31.087 33.9643 31.087C34.1068 31.087 34.2479 31.1152 34.3795 31.1699C34.511 31.2247 34.6305 31.305 34.7309 31.4061C34.9344 31.6108 35.0486 31.8877 35.0486 32.1764C35.0486 32.4651 34.9344 32.742 34.7309 32.9467L33.1722 34.5129ZM53.056 29.8465V28.3781C53.056 28.0905 53.1702 27.8147 53.3735 27.6114C53.5769 27.4081 53.8527 27.2938 54.1402 27.2938C54.4278 27.2938 54.7036 27.4081 54.9069 27.6114C55.1103 27.8147 55.2245 28.0905 55.2245 28.3781V29.8465C55.2247 29.9888 55.1968 30.1299 55.1424 30.2615C55.0881 30.3931 55.0083 30.5127 54.9078 30.6135C54.8072 30.7143 54.6877 30.7943 54.5562 30.8489C54.4248 30.9035 54.2838 30.9317 54.1414 30.9319C53.999 30.932 53.858 30.9042 53.7264 30.8498C53.5948 30.7954 53.4751 30.7157 53.3744 30.6151C53.2736 30.5146 53.1936 30.3951 53.1389 30.2636C53.0843 30.1321 53.0561 29.9912 53.056 29.8488V29.8465ZM44.2936 29.9698V29.0546H43.0811C42.7922 29.0546 42.515 28.9398 42.3107 28.7355C42.1064 28.5311 41.9916 28.254 41.9916 27.965C41.9916 27.6761 42.1064 27.3989 42.3107 27.1946C42.515 26.9903 42.7922 26.8755 43.0811 26.8755H47.6754C47.9644 26.8755 48.2415 26.9903 48.4458 27.1946C48.6502 27.3989 48.765 27.6761 48.765 27.965C48.765 28.254 48.6502 28.5311 48.4458 28.7355C48.2415 28.9398 47.9644 29.0546 47.6754 29.0546H46.4626V29.9737C50.3928 30.2576 54.0596 32.0556 56.6907 34.989C59.3218 37.9224 60.712 41.7624 60.5684 45.7003C60.4249 49.6382 58.7589 53.3667 55.9212 56.1008C53.0835 58.8349 49.2955 60.3611 45.355 60.3581C41.4145 60.3551 37.6289 58.8231 34.7953 56.0848C31.9618 53.3464 30.3014 49.6153 30.1639 45.6772C30.0263 41.739 31.4223 37.9012 34.0579 34.9718C36.6934 32.0424 40.3629 30.25 44.2936 29.9721V29.9698ZM45.3783 58.3151C47.9728 58.3274 50.5126 57.5692 52.6759 56.1367C54.8391 54.7042 56.5285 52.6617 57.5299 50.2682C58.5313 47.8746 58.7996 45.2377 58.301 42.6915C57.8023 40.1453 56.5591 37.8044 54.7287 35.9654C52.8984 34.1265 50.5634 32.8722 48.0196 32.3615C45.4758 31.8508 42.8376 32.1068 40.4393 33.0969C38.0411 34.087 35.9907 35.7667 34.548 37.9231C33.1053 40.0796 32.3351 42.6158 32.3352 45.2104C32.3301 48.6771 33.7006 52.0042 36.1459 54.4615C38.5912 56.9188 41.9116 58.3056 45.3783 58.3174V58.3151ZM36.9123 44.1208C37.2013 44.1208 37.4783 44.2356 37.6826 44.4399C37.8869 44.6442 38.0017 44.9213 38.0017 45.2102C38.0017 45.4992 37.8869 45.7763 37.6826 45.9806C37.4783 46.1849 37.2013 46.2996 36.9123 46.2996H36.7267C36.4378 46.2996 36.1607 46.1849 35.9564 45.9806C35.7521 45.7763 35.6373 45.4992 35.6373 45.2102C35.6373 44.9213 35.7521 44.6442 35.9564 44.4399C36.1607 44.2356 36.4378 44.1208 36.7267 44.1208H36.9123ZM40.0251 38.2913L40.1569 38.4232C40.3609 38.6273 40.4759 38.9039 40.4767 39.1926C40.4775 39.4812 40.3641 39.7584 40.1612 39.9637C40.0611 40.0652 39.9419 40.1458 39.8105 40.201C39.6791 40.2562 39.538 40.2848 39.3955 40.2852C39.2529 40.2856 39.1117 40.2577 38.98 40.2033C38.8483 40.1489 38.7286 40.0689 38.6279 39.968L38.4961 39.8361C38.292 39.6319 38.1771 39.3553 38.1763 39.0667C38.1756 38.778 38.2891 38.5008 38.4921 38.2956C38.5924 38.1943 38.7117 38.1139 38.8432 38.0589C38.9746 38.004 39.1157 37.9756 39.2582 37.9754C39.4007 37.9753 39.5418 38.0033 39.6734 38.0579C39.805 38.1125 39.9246 38.1926 40.0251 38.2936V38.2913ZM38.6279 50.4528C38.7286 50.3519 38.8483 50.272 38.98 50.2175C39.1117 50.1631 39.2529 50.1353 39.3955 50.1357C39.538 50.1361 39.6791 50.1647 39.8105 50.2198C39.9419 50.275 40.0611 50.3557 40.1612 50.4571C40.3641 50.6624 40.4775 50.9396 40.4767 51.2283C40.4759 51.5169 40.3609 51.7935 40.1569 51.9977L40.0251 52.1295C39.9243 52.2303 39.8047 52.3102 39.6729 52.3645C39.5412 52.4189 39.4 52.4467 39.2575 52.4463C39.115 52.4459 38.974 52.4173 38.8426 52.3622C38.7112 52.3071 38.592 52.2266 38.4918 52.1252C38.2888 51.92 38.1753 51.6428 38.176 51.3542C38.1768 51.0655 38.2917 50.7889 38.4957 50.5847L38.6279 50.4528ZM45.3783 35.4278C45.6665 35.4287 45.9425 35.544 46.1458 35.7483C46.3491 35.9526 46.463 36.2291 46.4626 36.5173V36.7046C46.4651 36.8486 46.4389 36.9916 46.3855 37.1254C46.3321 37.2592 46.2526 37.381 46.1517 37.4837C46.0507 37.5864 45.9303 37.668 45.7975 37.7237C45.6647 37.7794 45.5221 37.8081 45.3781 37.8081C45.2341 37.8081 45.0915 37.7794 44.9587 37.7237C44.8259 37.668 44.7055 37.5864 44.6045 37.4837C44.5036 37.381 44.4241 37.2592 44.3707 37.1254C44.3173 36.9916 44.2911 36.8486 44.2936 36.7046V36.5173C44.2938 36.2295 44.4081 35.9534 44.6114 35.7497C44.8146 35.5459 45.0904 35.431 45.3783 35.4301V35.4278ZM50.5979 38.4251C50.6983 38.324 50.8178 38.2437 50.9494 38.1889C51.0809 38.1342 51.2221 38.106 51.3646 38.106C51.5071 38.106 51.6482 38.1342 51.7798 38.1889C51.9114 38.2437 52.0308 38.324 52.1312 38.4251C52.3347 38.6298 52.449 38.9068 52.449 39.1954C52.449 39.4841 52.3347 39.761 52.1312 39.9657L46.1447 45.9805C46.0443 46.0817 45.9249 46.1619 45.7933 46.2167C45.6617 46.2715 45.5206 46.2997 45.3781 46.2997C45.2356 46.2997 45.0945 46.2715 44.9629 46.2167C44.8313 46.1619 44.7119 46.0817 44.6115 45.9805C44.4079 45.7758 44.2937 45.4989 44.2937 45.2102C44.2937 44.9216 44.4079 44.6447 44.6115 44.44L50.5979 38.4251ZM45.3783 52.6267C45.6665 52.6276 45.9425 52.7429 46.1458 52.9472C46.3491 53.1515 46.463 53.428 46.4626 53.7162V53.9028C46.4651 54.0468 46.4389 54.1899 46.3855 54.3237C46.3321 54.4574 46.2526 54.5792 46.1517 54.682C46.0507 54.7847 45.9303 54.8663 45.7975 54.922C45.6647 54.9777 45.5221 55.0064 45.3781 55.0064C45.2341 55.0064 45.0915 54.9777 44.9587 54.922C44.8259 54.8663 44.7055 54.7847 44.6045 54.682C44.5036 54.5792 44.4241 54.4574 44.3707 54.3237C44.3173 54.1899 44.2911 54.0468 44.2936 53.9028V53.7162C44.2938 53.4284 44.4081 53.1523 44.6114 52.9486C44.8146 52.7448 45.0904 52.6299 45.3783 52.629V52.6267ZM52.1312 50.4548L52.2631 50.5867C52.4666 50.7914 52.5808 51.0683 52.5808 51.3569C52.5808 51.6456 52.4666 51.9225 52.2631 52.1272C52.1627 52.2284 52.0432 52.3086 51.9117 52.3634C51.7801 52.4182 51.639 52.4464 51.4965 52.4464C51.3539 52.4464 51.2128 52.4182 51.0812 52.3634C50.9497 52.3086 50.8302 52.2284 50.7298 52.1272L50.5979 51.9954C50.3944 51.7907 50.2802 51.5137 50.2802 51.2251C50.2802 50.9364 50.3944 50.6595 50.5979 50.4548C50.6985 50.3538 50.8181 50.2737 50.9497 50.2191C51.0814 50.1646 51.2225 50.1366 51.3651 50.1368C51.5076 50.137 51.6487 50.1654 51.7802 50.2204C51.9116 50.2754 52.031 50.3558 52.1312 50.4571V50.4548ZM53.8455 44.1208H54.0295C54.3184 44.1208 54.5955 44.2356 54.7998 44.4399C55.0041 44.6442 55.1189 44.9213 55.1189 45.2102C55.1189 45.4992 55.0041 45.7763 54.7998 45.9806C54.5955 46.1849 54.3184 46.2996 54.0295 46.2996H53.8432C53.5546 46.2996 53.2778 46.1848 53.0738 45.9807C52.8698 45.7765 52.7552 45.4997 52.7553 45.2111C52.7554 44.9225 52.8701 44.6457 53.0743 44.4417C53.2784 44.2376 53.5552 44.1231 53.8439 44.1232L53.8455 44.1208Z" fill="#C93A17"/>
</svg>
