<svg width="61" height="61" viewBox="0 0 61 61" fill="none" xmlns="http://www.w3.org/2000/svg">
<path fill-rule="evenodd" clip-rule="evenodd" d="M59.6514 22.6582L52.8661 29.3989C52.4785 29.7829 51.9642 30.0122 51.4196 30.044C50.8749 30.0758 50.3374 29.9078 49.9078 29.5715L37.9528 20.1848C37.5963 20.4407 37.1606 20.5618 36.7231 20.5266C36.2857 20.4914 35.8749 20.3021 35.5639 19.9924L34.5064 18.942C34.3342 18.7714 34.1974 18.5684 34.1041 18.3446C34.0108 18.1208 33.9628 17.8808 33.9628 17.6384C33.9628 17.3959 34.0108 17.1559 34.1041 16.9322C34.1974 16.7084 34.3342 16.5053 34.5064 16.3347L46.5013 4.41877C46.8559 4.08345 47.3255 3.89661 47.8136 3.89661C48.3017 3.89661 48.7713 4.08345 49.126 4.41877L50.1826 5.46771C50.4917 5.7755 50.6809 6.18336 50.7164 6.6181C50.7519 7.05284 50.6312 7.48598 50.3761 7.8398L59.8246 19.7179C60.1633 20.1432 60.333 20.6785 60.301 21.2212C60.269 21.7639 60.0377 22.2757 59.6514 22.6582ZM51.2519 27.8808C51.2637 27.8899 51.2785 27.8944 51.2934 27.8935C51.3083 27.8926 51.3223 27.8863 51.3329 27.8757L58.1182 21.135C58.129 21.1246 58.1354 21.1105 58.1362 21.0955C58.137 21.0806 58.132 21.0658 58.1224 21.0544L57.1573 19.8412H41.0116L51.2519 27.8808ZM48.8515 9.39873L48.4464 9.80117C48.2426 10.0035 47.9671 10.117 47.6799 10.117C47.3928 10.117 47.1173 10.0035 46.9135 9.80117C46.8128 9.70154 46.7328 9.58293 46.6783 9.4522C46.6237 9.32148 46.5956 9.18123 46.5956 9.03958C46.5956 8.89793 46.6237 8.75768 46.6783 8.62696C46.7328 8.49623 46.8128 8.37762 46.9135 8.27799L48.4281 6.77254L47.8132 6.16238L36.2601 17.6384L36.8755 18.2497L37.1205 18.0065L37.1282 17.9989L43.4588 11.7096C43.6627 11.5075 43.9382 11.394 44.2254 11.394C44.5125 11.394 44.7881 11.5075 44.992 11.7096C45.0926 11.8093 45.1725 11.9279 45.227 12.0587C45.2815 12.1894 45.3096 12.3296 45.3096 12.4712C45.3096 12.6129 45.2815 12.7531 45.227 12.8838C45.1725 13.0145 45.0926 13.1332 44.992 13.2328L40.5093 17.6868H55.4439L48.8515 9.39873ZM33.7801 21.3992C33.7334 21.4553 28.9713 27.3217 28.9713 37.2302C28.9666 37.5147 28.8503 37.7859 28.6474 37.9854C28.4446 38.1849 28.1715 38.2967 27.887 38.2967C27.6025 38.2967 27.3294 38.1849 27.1266 37.9854C26.9237 37.7859 26.8075 37.5147 26.8028 37.2302C26.8028 26.5044 31.8947 20.2829 32.1113 20.0235C32.2958 19.8035 32.5597 19.6652 32.8456 19.6388C33.1316 19.6124 33.4163 19.7 33.638 19.8825C33.7475 19.9723 33.8382 20.083 33.9047 20.2081C33.9712 20.3332 34.0122 20.4702 34.0255 20.6112C34.0387 20.7523 34.0238 20.8945 33.9817 21.0298C33.9396 21.165 33.8711 21.2906 33.7801 21.3992ZM32.8503 37.8413C32.7997 37.8482 32.7488 37.8516 32.6978 37.8516C32.4375 37.8518 32.1858 37.7583 31.9889 37.588C31.792 37.4178 31.663 37.1823 31.6255 36.9247C30.2749 27.3723 33.9893 21.781 34.1477 21.5472C34.3099 21.3099 34.5593 21.1464 34.8415 21.0921C35.1238 21.0379 35.416 21.0974 35.6546 21.2577C35.7725 21.3363 35.8736 21.4375 35.9521 21.5554C36.0306 21.6734 36.085 21.8057 36.1121 21.9447C36.1392 22.0838 36.1385 22.2269 36.1101 22.3656C36.0816 22.5044 36.0259 22.6362 35.9463 22.7534C35.9138 22.8018 32.5465 27.9431 33.7742 36.6245C33.7937 36.7651 33.7852 36.9082 33.7493 37.0455C33.7134 37.1828 33.6507 37.3117 33.5649 37.4247C33.479 37.5378 33.3717 37.6327 33.2491 37.7042C33.1265 37.7757 32.9909 37.8223 32.8503 37.8413ZM25.3452 30.8332C24.3964 30.7994 23.4471 30.7825 22.4977 30.7826C9.55847 30.7826 2.49954 33.7259 2.49954 35.2381C2.49954 36.7504 9.55847 39.6933 22.4977 39.6933C35.4369 39.6933 42.4958 36.7501 42.4958 35.2381C42.2919 34.529 39.0653 32.5821 35.657 32.0106C35.516 31.9885 35.3809 31.9386 35.2593 31.8638C35.1378 31.789 35.0323 31.6908 34.9491 31.5749C34.8658 31.459 34.8063 31.3277 34.7742 31.1887C34.742 31.0497 34.7378 30.9056 34.7617 30.765C34.7857 30.6243 34.8373 30.4898 34.9136 30.3692C34.99 30.2486 35.0895 30.1444 35.2064 30.0626C35.3234 29.9808 35.4554 29.923 35.5948 29.8926C35.7342 29.8623 35.8783 29.8598 36.0187 29.8856C39.0807 30.4 44.5142 32.5818 44.6578 35.1353C44.6578 35.1427 44.661 35.1498 44.6616 35.1575C44.6912 35.5339 45.2919 44.4608 39.3017 50.8768C35.4505 55.0025 29.7959 57.0945 22.4983 57.0945C15.2006 57.0945 9.54724 55.0025 5.69423 50.8762C-0.295963 44.4608 0.306218 35.5339 0.334288 35.1569C0.334288 35.1409 0.340789 35.1273 0.342561 35.1108C0.578942 30.4742 13.6685 28.2619 25.4235 28.6797C25.5649 28.6849 25.7039 28.7178 25.8325 28.7767C25.9612 28.8355 26.077 28.9192 26.1734 29.0228C26.2697 29.1264 26.3447 29.248 26.3941 29.3806C26.4434 29.5132 26.4662 29.6542 26.461 29.7956C26.4559 29.937 26.423 30.076 26.3641 30.2047C26.3052 30.3333 26.2216 30.4491 26.118 30.5455C26.0144 30.6418 25.8928 30.7168 25.7602 30.7662C25.6276 30.8155 25.4866 30.8383 25.3452 30.8332ZM7.29748 49.4251C10.7232 53.0846 15.8367 54.9402 22.4983 54.9402C29.1683 54.9402 34.2878 53.0787 37.7126 49.4106C41.05 45.8354 42.0889 41.2738 42.3965 38.3244C38.5816 40.6468 30.5063 41.8476 22.4983 41.8476C14.4903 41.8476 6.42199 40.6477 2.60502 38.3273C2.91675 41.2853 3.96096 45.8605 7.29748 49.4251ZM11.9678 50.9829C11.7538 50.9832 11.5444 50.9202 11.3662 50.8018C8.95843 49.1798 7.10375 46.8609 6.05057 44.1556C5.94286 43.8892 5.9454 43.5908 6.05764 43.3263C6.16988 43.0617 6.38262 42.8526 6.64906 42.7449C6.9155 42.6371 7.21382 42.6397 7.47839 42.7519C7.74295 42.8642 7.9521 43.0769 8.05981 43.3433C8.95129 45.6475 10.5257 47.6242 12.572 49.0085C12.6902 49.0866 12.7918 49.1873 12.871 49.3049C12.9501 49.4224 13.0052 49.5544 13.0331 49.6933C13.0609 49.8323 13.0611 49.9753 13.0334 50.1143C13.0057 50.2532 12.9509 50.3854 12.8719 50.503C12.7723 50.6512 12.6377 50.7725 12.4799 50.8562C12.3222 50.9399 12.1463 50.9834 11.9678 50.9829ZM21.1592 23.5585C20.872 23.5591 20.5963 23.4456 20.3927 23.243L19.6641 22.5194C19.5634 22.4197 19.4836 22.3011 19.429 22.1703C19.3745 22.0396 19.3465 21.8994 19.3465 21.7578C19.3465 21.6161 19.3745 21.4759 19.429 21.3452C19.4836 21.2145 19.5634 21.0958 19.6641 20.9962C19.868 20.794 20.1435 20.6806 20.4307 20.6806C20.7178 20.6806 20.9934 20.794 21.1973 20.9962L21.9259 21.7198C22.0265 21.8195 22.1064 21.9381 22.1609 22.0688C22.2154 22.1995 22.2435 22.3398 22.2435 22.4814C22.2435 22.623 22.2154 22.7632 22.1609 22.894C22.1064 23.0247 22.0265 23.1433 21.9259 23.243C21.7222 23.4455 21.4464 23.559 21.1592 23.5585ZM21.1973 19.3377C20.9934 19.5398 20.7178 19.6533 20.4307 19.6533C20.1435 19.6533 19.868 19.5398 19.6641 19.3377C19.5634 19.238 19.4835 19.1193 19.429 18.9886C19.3745 18.8578 19.3465 18.7176 19.3465 18.5759C19.3465 18.4343 19.3745 18.294 19.429 18.1633C19.4835 18.0325 19.5634 17.9139 19.6641 17.8142L20.3927 17.0906C20.5966 16.8884 20.8721 16.7749 21.1593 16.7749C21.4465 16.7749 21.722 16.8884 21.9259 17.0906C22.0265 17.1902 22.1064 17.3089 22.1609 17.4396C22.2154 17.5703 22.2435 17.7105 22.2435 17.8522C22.2435 17.9938 22.2154 18.134 22.1609 18.2647C22.1064 18.3955 22.0265 18.5141 21.9259 18.6137L21.1973 19.3377ZM17.2674 23.243C17.0635 23.4452 16.788 23.5586 16.5008 23.5586C16.2137 23.5586 15.9381 23.4452 15.7342 23.243C15.6335 23.1433 15.5536 23.0247 15.499 22.894C15.4445 22.7633 15.4164 22.623 15.4164 22.4814C15.4164 22.3397 15.4445 22.1995 15.499 22.0688C15.5536 21.938 15.6335 21.8194 15.7342 21.7198L16.4626 20.9962C16.6665 20.794 16.942 20.6806 17.2292 20.6806C17.5163 20.6806 17.7919 20.794 17.9958 20.9962C18.0964 21.0958 18.1763 21.2145 18.2308 21.3452C18.2853 21.4759 18.3134 21.6161 18.3134 21.7578C18.3134 21.8994 18.2853 22.0396 18.2308 22.1703C18.1763 22.3011 18.0964 22.4197 17.9958 22.5194L17.2674 23.243ZM17.2293 19.6532C17.0868 19.6537 16.9456 19.626 16.8138 19.5719C16.682 19.5177 16.5621 19.4381 16.4611 19.3377L15.7327 18.6137C15.632 18.5141 15.5521 18.3955 15.4976 18.2648C15.443 18.1341 15.4149 17.9938 15.4149 17.8522C15.4149 17.7105 15.443 17.5703 15.4976 17.4395C15.5521 17.3088 15.632 17.1902 15.7327 17.0906C15.9367 16.8884 16.2122 16.7749 16.4994 16.7749C16.7865 16.7749 17.062 16.8884 17.266 17.0906L17.9943 17.8142C18.0949 17.9139 18.1748 18.0325 18.2293 18.1633C18.2838 18.294 18.3119 18.4343 18.3119 18.5759C18.3119 18.7176 18.2838 18.8578 18.2293 18.9886C18.1748 19.1193 18.0949 19.238 17.9943 19.3377C17.7907 19.5401 17.5152 19.6536 17.2281 19.6532H17.2293ZM8.41438 14.7294C8.12774 14.73 7.85255 14.617 7.6491 14.415L7.42188 14.1899C7.32105 14.0904 7.24094 13.9719 7.18618 13.8413C7.13142 13.7107 7.10309 13.5705 7.10285 13.4288C7.1026 13.2872 7.13043 13.1469 7.18474 13.0161C7.23904 12.8853 7.31874 12.7665 7.41922 12.6667C7.62279 12.4642 7.89812 12.3502 8.18528 12.3497C8.47244 12.3492 8.74817 12.4622 8.95244 12.664L9.17967 12.8892C9.2805 12.9887 9.36061 13.1071 9.41537 13.2378C9.47013 13.3684 9.49845 13.5086 9.4987 13.6502C9.49894 13.7919 9.47111 13.9322 9.41681 14.063C9.3625 14.1938 9.28281 14.3125 9.18232 14.4124C9.08143 14.5131 8.96167 14.5929 8.8299 14.6473C8.69813 14.7017 8.55694 14.7296 8.41438 14.7294ZM8.95244 11.1946C8.74821 11.3965 8.47247 11.5095 8.18528 11.509C7.8981 11.5085 7.62275 11.3946 7.41922 11.192C7.31874 11.0921 7.23904 10.9734 7.18474 10.8426C7.13043 10.7118 7.1026 10.5715 7.10285 10.4298C7.10309 10.2882 7.13142 10.148 7.18618 10.0174C7.24094 9.88675 7.32105 9.76827 7.42188 9.66879L7.6491 9.44364C7.85341 9.24185 8.12916 9.12895 8.41632 9.1295C8.70348 9.13005 8.97879 9.24402 9.18232 9.4466C9.28281 9.54642 9.3625 9.66518 9.41681 9.796C9.47111 9.92682 9.49894 10.0671 9.4987 10.2087C9.49845 10.3504 9.47013 10.4906 9.41537 10.6212C9.36061 10.7518 9.2805 10.8703 9.17967 10.9698L8.95244 11.1946ZM5.71284 14.4153C5.50892 14.6175 5.23339 14.7309 4.94623 14.7309C4.65907 14.7309 4.38354 14.6175 4.17962 14.4153C4.079 14.3157 3.99912 14.197 3.94462 14.0663C3.89011 13.9356 3.86204 13.7954 3.86204 13.6537C3.86204 13.5121 3.89011 13.3719 3.94462 13.2412C3.99912 13.1104 4.079 12.9918 4.17962 12.8921L4.40625 12.667C4.61017 12.4648 4.8857 12.3514 5.17286 12.3514C5.46002 12.3514 5.73555 12.4648 5.93947 12.667C6.04016 12.7666 6.1201 12.8852 6.17465 13.016C6.22921 13.1467 6.2573 13.2869 6.2573 13.4286C6.2573 13.5702 6.22921 13.7105 6.17465 13.8412C6.1201 13.9719 6.04016 14.0905 5.93947 14.1902L5.71284 14.4153ZM5.17301 11.5105C4.88572 11.511 4.60998 11.3975 4.40625 11.1949L4.17962 10.9698C4.079 10.8701 3.99912 10.7515 3.94462 10.6208C3.89011 10.49 3.86204 10.3498 3.86204 10.2082C3.86204 10.0666 3.89011 9.92633 3.94462 9.79561C3.99912 9.66489 4.079 9.54627 4.17962 9.4466C4.38354 9.24442 4.65907 9.13098 4.94623 9.13098C5.23339 9.13098 5.50892 9.24442 5.71284 9.4466L5.93947 9.67175C6.04016 9.77138 6.1201 9.88999 6.17465 10.0207C6.22921 10.1514 6.2573 10.2917 6.2573 10.4333C6.2573 10.575 6.22921 10.7152 6.17465 10.846C6.1201 10.9767 6.04016 11.0953 5.93947 11.1949C5.73558 11.3971 5.45981 11.51 5.17271 11.509L5.17301 11.5105Z" fill="#C93A17"/>
</svg>
