<svg width="16" height="9" viewBox="0 0 16 9" fill="none" xmlns="http://www.w3.org/2000/svg">
<path fill-rule="evenodd" clip-rule="evenodd" d="M13.6887 6.05727C14.2764 6.51724 14.7799 7.07548 15.1771 7.70727C15.6742 8.49614 14.6269 8.55818 14.6269 8.55818L12.6244 8.58477C12.2679 8.61257 11.9136 8.50902 11.6283 8.29364C10.8783 7.80136 10.1733 6.52091 9.62302 6.68864C9.0728 6.85636 9.08234 8.01 9.08234 8.01C9.08429 8.1458 9.04112 8.27841 8.95962 8.38704C8.84276 8.4826 8.70061 8.54207 8.55052 8.55818H7.65462C6.9583 8.54686 6.27113 8.39762 5.63285 8.11909C4.99456 7.84056 4.41782 7.43826 3.93598 6.93545C2.03712 5.04136 0.359843 1.28318 0.359843 1.28318C0.334429 1.22522 0.322051 1.16239 0.323582 1.09913C0.325114 1.03586 0.340518 0.973705 0.368706 0.917045C0.496553 0.82477 0.650128 0.77493 0.807797 0.774545L2.95007 0.761591C3.07335 0.783875 3.19105 0.830211 3.29643 0.897954C3.37686 0.962115 3.4407 1.04466 3.48257 1.13864C3.715 1.6884 3.98378 2.22208 4.28712 2.73614C5.18166 4.21773 5.59893 4.54159 5.90234 4.38273C6.34552 4.15159 6.21257 2.28886 6.21257 2.28886C6.22212 1.94956 6.1454 1.61339 5.98962 1.31182C5.81499 1.12648 5.57794 1.01233 5.32416 0.991364C5.20348 0.975682 5.40189 0.707727 5.65825 0.587727C6.26467 0.41001 6.89909 0.347795 7.52848 0.404318C7.88204 0.391318 8.23578 0.425017 8.58052 0.504545C9.31893 0.675 9.06871 1.335 9.06871 2.9175C9.06871 3.42409 8.97325 4.13659 9.35507 4.37318C9.51871 4.47409 9.9203 4.38818 10.9233 2.75523C11.2434 2.21621 11.5217 1.65342 11.7558 1.07182C11.8013 0.978828 11.8698 0.899025 11.9548 0.84C12.0453 0.796522 12.1462 0.779504 12.246 0.790909L14.5001 0.777273C14.5001 0.777273 15.1778 0.700227 15.2869 0.992727C15.4021 1.30023 15.0339 2.01545 14.1128 3.19364C12.6019 5.12182 12.4335 4.94114 13.6887 6.05727Z" fill="#206C04"/>
</svg>
